# xmcd CD database file
#
# Track frame offsets:
#	150
#	16890
#	31234
#	43641
#	82000
#	95581
#	112627
#	134843
#	149696
#	166874
#	178869
#	190201
#	197886
#	222143
#	235965
#	248664
#
# Disc length: 3513 seconds
#
# Revision: 0
# Processed by: cddbd v1.5.2PL0 Copyright (c) Steve Scherf et al.
# Submitted via: CDex 2.21
#
DISCID=e00db710
DTITLE=Trevor Knight - Sing Australia
DYEAR=2917
DGENRE=Country
TTITLE0=Sing Australia 
TTITLE1=The Diamantina Drover 
TTITLE2=I Love A Sunburnt Country 
TTITLE3=The Man From Snowy River 
TTITLE4=Five Inches Of Rain 
TTITLE5=The Heather Of Home 
TTITLE6=The Legend Of Phar Lap 
TTITLE7=The Bombs Fell Down On Darwin 
TTITLE8=Merry Bloody Christmas 
TTITLE9=When Someone Sings 
TTITLE10=Bulahdelah Breakout 
TTITLE11=Song Of Australia 
TTITLE12=And The Band Played Waltzing Matilda 
TTITLE13=I Still Call Australia Home 
TTITLE14=Waltzing Matilda 
TTITLE15=I am Australian 
EXTD=YEAR: 2917
EXTT0=
EXTT1=
EXTT2=
EXTT3=
EXTT4=
EXTT5=
EXTT6=
EXTT7=
EXTT8=
EXTT9=
EXTT10=
EXTT11=
EXTT12=
EXTT13=
EXTT14=
EXTT15=
PLAYORDER=
